HIERARCHY
ROOT Hips
{
	OFFSET -339.306915 540.749023 89.171944
	CHANNELS 6 Xposition Yposition Zposition Zrotation Yrotation Xrotation
	JOINT Spine
	{
		OFFSET 0.000000 2.080078 8.814247
		CHANNELS 6 Xposition Yposition Zposition Zrotation Yrotation Xrotation
		JOINT Spine1
		{
			OFFSET 0.000000 0.000000 8.844139
			CHANNELS 6 Xposition Yposition Zposition Zrotation Yrotation Xrotation
			JOINT Spine2
			{
				OFFSET 0.000000 0.000000 11.682266
				CHANNELS 6 Xposition Yposition Zposition Zrotation Yrotation Xrotation
				JOINT Spine3
				{
					OFFSET 0.000000 0.000000 11.746696
					CHANNELS 6 Xposition Yposition Zposition Zrotation Yrotation Xrotation
					JOINT Neck
					{
						OFFSET 0.000000 0.000000 17.658264
						CHANNELS 6 Xposition Yposition Zposition Zrotation Yrotation Xrotation
						JOINT Neck1
						{
							OFFSET 0.000000 0.000000 5.101517
							CHANNELS 6 Xposition Yposition Zposition Zrotation Yrotation Xrotation
							JOINT Head
							{
								OFFSET 0.000000 0.000000 5.101517
								CHANNELS 6 Xposition Yposition Zposition Zrotation Yrotation Xrotation
								JOINT HeadEnd
								{
									OFFSET 0.000000 0.000000 11.655090
									CHANNELS 6 Xposition Yposition Zposition Zrotation Yrotation Xrotation
									End Site
									{
										OFFSET 0.000000 0.000000 0.100006
									}
								}
							}
						}
					}
					JOINT RightShoulder
					{
						OFFSET -2.625397 0.000000 11.175217
						CHANNELS 6 Xposition Yposition Zposition Zrotation Yrotation Xrotation
						JOINT RightArm
						{
							OFFSET 0.000000 0.000000 10.434708
							CHANNELS 6 Xposition Yposition Zposition Zrotation Yrotation Xrotation
							JOINT RightForeArm
							{
								OFFSET 0.000000 0.000000 29.628418
								CHANNELS 6 Xposition Yposition Zposition Zrotation Yrotation Xrotation
								JOINT RightHand
								{
									OFFSET 0.000000 0.000000 22.857605
									CHANNELS 6 Xposition Yposition Zposition Zrotation Yrotation Xrotation
									JOINT RightHandThumb1
									{
										OFFSET -2.867310 -2.944275 3.959564
										CHANNELS 6 Xposition Yposition Zposition Zrotation Yrotation Xrotation
										JOINT RightHandThumb2
										{
											OFFSET 0.000000 0.000000 3.350403
											CHANNELS 6 Xposition Yposition Zposition Zrotation Yrotation Xrotation
											JOINT RightHandThumb3
											{
												OFFSET 0.000000 0.000000 3.756516
												CHANNELS 6 Xposition Yposition Zposition Zrotation Yrotation Xrotation
												JOINT RightHandThumb4
												{
													OFFSET 0.000000 0.000000 3.147339
													CHANNELS 6 Xposition Yposition Zposition Zrotation Yrotation Xrotation
													End Site
													{
														OFFSET 0.000000 0.000000 0.100006
													}
												}
											}
										}
									}
									JOINT RightHandIndex1
									{
										OFFSET -0.086761 -2.345276 10.030899
										CHANNELS 6 Xposition Yposition Zposition Zrotation Yrotation Xrotation
										JOINT RightHandIndex2
										{
											OFFSET 0.000000 0.000000 4.061096
											CHANNELS 6 Xposition Yposition Zposition Zrotation Yrotation Xrotation
											JOINT RightHandIndex3
											{
												OFFSET 0.000000 0.000000 3.248871
												CHANNELS 6 Xposition Yposition Zposition Zrotation Yrotation Xrotation
												JOINT RightHandIndex4
												{
													OFFSET 0.000000 0.000000 2.639709
													CHANNELS 6 Xposition Yposition Zposition Zrotation Yrotation Xrotation
													End Site
													{
														OFFSET 0.000000 0.000000 0.100006
													}
												}
											}
										}
									}
									JOINT RightHandMiddle1
									{
										OFFSET 0.104095 -0.006775 9.502945
										CHANNELS 6 Xposition Yposition Zposition Zrotation Yrotation Xrotation
										JOINT RightHandMiddle2
										{
											OFFSET 0.000000 0.000000 4.568726
											CHANNELS 6 Xposition Yposition Zposition Zrotation Yrotation Xrotation
											JOINT RightHandMiddle3
											{
												OFFSET 0.000000 0.000000 3.654984
												CHANNELS 6 Xposition Yposition Zposition Zrotation Yrotation Xrotation
												JOINT RightHandMiddle4
												{
													OFFSET 0.000000 0.000000 2.741241
													CHANNELS 6 Xposition Yposition Zposition Zrotation Yrotation Xrotation
													End Site
													{
														OFFSET 0.000000 0.000000 0.100006
													}
												}
											}
										}
									}
									JOINT RightHandRing1
									{
										OFFSET 0.086761 2.267456 8.921707
										CHANNELS 6 Xposition Yposition Zposition Zrotation Yrotation Xrotation
										JOINT RightHandRing2
										{
											OFFSET 0.000000 0.000000 4.061096
											CHANNELS 6 Xposition Yposition Zposition Zrotation Yrotation Xrotation
											JOINT RightHandRing3
											{
												OFFSET 0.000000 0.000000 3.654984
												CHANNELS 6 Xposition Yposition Zposition Zrotation Yrotation Xrotation
												JOINT RightHandRing4
												{
													OFFSET 0.000000 0.000000 2.741241
													CHANNELS 6 Xposition Yposition Zposition Zrotation Yrotation Xrotation
													End Site
													{
														OFFSET 0.000000 0.000000 0.100006
													}
												}
											}
										}
									}
									JOINT RightHandPinky1
									{
										OFFSET -0.173492 4.467224 7.976990
										CHANNELS 6 Xposition Yposition Zposition Zrotation Yrotation Xrotation
										JOINT RightHandPinky2
										{
											OFFSET 0.000000 0.000000 3.350403
											CHANNELS 6 Xposition Yposition Zposition Zrotation Yrotation Xrotation
											JOINT RightHandPinky3
											{
												OFFSET 0.000000 0.000000 2.842758
												CHANNELS 6 Xposition Yposition Zposition Zrotation Yrotation Xrotation
												JOINT RightHandPinky4
												{
													OFFSET 0.000000 0.000000 2.639709
													CHANNELS 6 Xposition Yposition Zposition Zrotation Yrotation Xrotation
													End Site
													{
														OFFSET 0.000000 0.000000 0.100006
													}
												}
											}
										}
									}
									JOINT RightForeArmEnd
									{
										OFFSET 0.000000 0.000000 0.000000
										CHANNELS 6 Xposition Yposition Zposition Zrotation Yrotation Xrotation
										End Site
										{
											OFFSET 0.000000 0.000000 0.100006
										}
									}
								}
								JOINT RightArmEnd
								{
									OFFSET 0.000000 0.000000 0.000000
									CHANNELS 6 Xposition Yposition Zposition Zrotation Yrotation Xrotation
									End Site
									{
										OFFSET 0.000000 0.000000 0.100006
									}
								}
							}
						}
					}
					JOINT LeftShoulder
					{
						OFFSET 2.625397 0.000000 11.175217
						CHANNELS 6 Xposition Yposition Zposition Zrotation Yrotation Xrotation
						JOINT LeftArm
						{
							OFFSET 0.000000 0.000000 10.813629
							CHANNELS 6 Xposition Yposition Zposition Zrotation Yrotation Xrotation
							JOINT LeftForeArm
							{
								OFFSET 0.000000 0.000000 28.724777
								CHANNELS 6 Xposition Yposition Zposition Zrotation Yrotation Xrotation
								JOINT LeftHand
								{
									OFFSET 0.644379 0.328857 25.716171
									CHANNELS 6 Xposition Yposition Zposition Zrotation Yrotation Xrotation
									JOINT LeftHandThumb1
									{
										OFFSET 2.867310 -2.944275 3.959564
										CHANNELS 6 Xposition Yposition Zposition Zrotation Yrotation Xrotation
										JOINT LeftHandThumb2
										{
											OFFSET 0.000000 0.000000 3.350403
											CHANNELS 6 Xposition Yposition Zposition Zrotation Yrotation Xrotation
											JOINT LeftHandThumb3
											{
												OFFSET 0.000000 0.000000 3.756516
												CHANNELS 6 Xposition Yposition Zposition Zrotation Yrotation Xrotation
												JOINT LeftHandThumb4
												{
													OFFSET 0.000000 0.000000 3.100006
													CHANNELS 6 Xposition Yposition Zposition Zrotation Yrotation Xrotation
													End Site
													{
														OFFSET 0.000000 0.000000 0.100006
													}
												}
											}
										}
									}
									JOINT LeftHandIndex1
									{
										OFFSET 0.086761 -2.345276 10.030899
										CHANNELS 6 Xposition Yposition Zposition Zrotation Yrotation Xrotation
										JOINT LeftHandIndex2
										{
											OFFSET 0.000000 0.000000 4.061096
											CHANNELS 6 Xposition Yposition Zposition Zrotation Yrotation Xrotation
											JOINT LeftHandIndex3
											{
												OFFSET 0.000000 0.000000 3.248871
												CHANNELS 6 Xposition Yposition Zposition Zrotation Yrotation Xrotation
												JOINT LeftHandIndex4
												{
													OFFSET 0.000000 0.000000 2.639709
													CHANNELS 6 Xposition Yposition Zposition Zrotation Yrotation Xrotation
													End Site
													{
														OFFSET 0.000000 0.000000 0.100006
													}
												}
											}
										}
									}
									JOINT LeftHandMiddle1
									{
										OFFSET -0.104095 -0.006775 9.502945
										CHANNELS 6 Xposition Yposition Zposition Zrotation Yrotation Xrotation
										JOINT LeftHandMiddle2
										{
											OFFSET 0.000000 0.000000 4.568726
											CHANNELS 6 Xposition Yposition Zposition Zrotation Yrotation Xrotation
											JOINT LeftHandMiddle3
											{
												OFFSET 0.000000 0.000000 3.654984
												CHANNELS 6 Xposition Yposition Zposition Zrotation Yrotation Xrotation
												JOINT LeftHandMiddle4
												{
													OFFSET 0.000000 0.000000 2.741241
													CHANNELS 6 Xposition Yposition Zposition Zrotation Yrotation Xrotation
													End Site
													{
														OFFSET 0.000000 0.000000 0.100006
													}
												}
											}
										}
									}
									JOINT LeftHandRing1
									{
										OFFSET -0.086761 2.267456 8.921707
										CHANNELS 6 Xposition Yposition Zposition Zrotation Yrotation Xrotation
										JOINT LeftHandRing2
										{
											OFFSET 0.000000 0.000000 4.061096
											CHANNELS 6 Xposition Yposition Zposition Zrotation Yrotation Xrotation
											JOINT LeftHandRing3
											{
												OFFSET 0.000000 0.000000 3.654984
												CHANNELS 6 Xposition Yposition Zposition Zrotation Yrotation Xrotation
												JOINT LeftHandRing4
												{
													OFFSET 0.000000 0.000000 2.741241
													CHANNELS 6 Xposition Yposition Zposition Zrotation Yrotation Xrotation
													End Site
													{
														OFFSET 0.000000 0.000000 0.100006
													}
												}
											}
										}
									}
									JOINT LeftHandPinky1
									{
										OFFSET 0.173492 4.467224 7.976990
										CHANNELS 6 Xposition Yposition Zposition Zrotation Yrotation Xrotation
										JOINT LeftHandPinky2
										{
											OFFSET 0.000000 0.000000 3.350403
											CHANNELS 6 Xposition Yposition Zposition Zrotation Yrotation Xrotation
											JOINT LeftHandPinky3
											{
												OFFSET 0.000000 0.000000 2.842758
												CHANNELS 6 Xposition Yposition Zposition Zrotation Yrotation Xrotation
												JOINT LeftHandPinky4
												{
													OFFSET 0.000000 0.000000 2.639709
													CHANNELS 6 Xposition Yposition Zposition Zrotation Yrotation Xrotation
													End Site
													{
														OFFSET 0.000000 0.000000 0.100006
													}
												}
											}
										}
									}
									JOINT LeftForeArmEnd
									{
										OFFSET 0.000000 0.000000 0.000000
										CHANNELS 6 Xposition Yposition Zposition Zrotation Yrotation Xrotation
										End Site
										{
											OFFSET 0.000000 0.000000 0.100006
										}
									}
								}
								JOINT LeftArmEnd
								{
									OFFSET 0.000000 0.000000 0.000000
									CHANNELS 6 Xposition Yposition Zposition Zrotation Yrotation Xrotation
									End Site
									{
										OFFSET 0.000000 0.000000 0.100006
									}
								}
							}
						}
					}
				}
			}
		}
	}
	JOINT RightUpLeg
	{
		OFFSET -11.289948 0.000000 0.000000
		CHANNELS 6 Xposition Yposition Zposition Zrotation Yrotation Xrotation
		JOINT RightLeg
		{
			OFFSET 0.000000 0.000000 -38.200329
			CHANNELS 6 Xposition Yposition Zposition Zrotation Yrotation Xrotation
			JOINT RightFoot
			{
				OFFSET 0.000000 0.000000 -39.900856
				CHANNELS 6 Xposition Yposition Zposition Zrotation Yrotation Xrotation
				JOINT RightToeBase
				{
					OFFSET 0.000000 -15.261658 0.000001
					CHANNELS 6 Xposition Yposition Zposition Zrotation Yrotation Xrotation
					JOINT RightToeBaseEnd
					{
						OFFSET 0.000000 -7.370728 0.000001
						CHANNELS 6 Xposition Yposition Zposition Zrotation Yrotation Xrotation
						End Site
						{
							OFFSET 0.000000 0.000000 0.100000
						}
					}
				}
				JOINT RightLegEnd
				{
					OFFSET 0.000000 0.000000 0.000000
					CHANNELS 6 Xposition Yposition Zposition Zrotation Yrotation Xrotation
					End Site
					{
						OFFSET 0.000000 0.000000 0.100000
					}
				}
			}
			JOINT RightUpLegEnd
			{
				OFFSET 0.000000 0.000000 0.000000
				CHANNELS 6 Xposition Yposition Zposition Zrotation Yrotation Xrotation
				End Site
				{
					OFFSET 0.000000 0.000000 0.099998
				}
			}
		}
	}
	JOINT LeftUpLeg
	{
		OFFSET 11.315674 0.000000 0.000000
		CHANNELS 6 Xposition Yposition Zposition Zrotation Yrotation Xrotation
		JOINT LeftLeg
		{
			OFFSET 0.000000 0.000000 -38.200329
			CHANNELS 6 Xposition Yposition Zposition Zrotation Yrotation Xrotation
			JOINT LeftFoot
			{
				OFFSET 0.000000 0.000000 -39.900856
				CHANNELS 6 Xposition Yposition Zposition Zrotation Yrotation Xrotation
				JOINT LeftToeBase
				{
					OFFSET 0.000000 -15.261658 0.000001
					CHANNELS 6 Xposition Yposition Zposition Zrotation Yrotation Xrotation
					JOINT LeftToeBaseEnd
					{
						OFFSET 0.000000 -7.539978 0.000001
						CHANNELS 6 Xposition Yposition Zposition Zrotation Yrotation Xrotation
						End Site
						{
							OFFSET 0.000000 0.000000 0.100000
						}
					}
				}
				JOINT LeftLegEnd
				{
					OFFSET 0.000000 0.000000 0.000000
					CHANNELS 6 Xposition Yposition Zposition Zrotation Yrotation Xrotation
					End Site
					{
						OFFSET 0.000000 0.000000 0.100000
					}
				}
			}
			JOINT LeftUpLegEnd
			{
				OFFSET 0.000000 0.000000 0.000000
				CHANNELS 6 Xposition Yposition Zposition Zrotation Yrotation Xrotation
				End Site
				{
					OFFSET 0.000000 0.000000 0.099998
				}
			}
		}
	}
}
MOTION
Frames: 2
Frame Time: 0.016667
9.583710 -72.295715 86.180573 -9.921333 5.927243 -18.679919 -0.000004 2.080086 8.814237 -0.389944 -0.791944 8.828402 -0.000007 -0.000023 8.844131 -0.127983 -0.450700 2.867891 -0.000015 0.000027 11.682265 -2.543642 -2.418302 11.105619 0.000014 0.000023 11.746706 -1.340596 -2.903102 9.607359 0.000012 -0.000020 17.658281 -0.452404 -0.103325 12.490060 -0.000006 -0.000006 5.101536 -1.027961 1.422167 -0.410563 -0.000009 0.000012 5.101499 -0.153754 2.138839 -21.200591 -0.000003 0.000002 11.655092 -0.000000 0.000000 0.000000 -2.625420 0.000010 11.175240 7.814014 -80.047611 -0.235186 -0.000031 0.000004 10.434704 38.318386 -73.503340 -24.571385 0.000015 -0.000031 29.628433 24.993891 1.120258 107.405701 0.000015 -0.000053 22.857574 -44.135067 17.526742 -44.154086 -2.867302 -2.944305 3.959549 33.202564 -11.605039 61.042528 -0.000003 -0.000023 3.350426 -0.590035 0.577945 -1.183411 -0.000035 0.000040 3.756500 -0.408465 0.402984 -0.820140 -0.000029 0.000002 3.147353 0.000000 0.000002 0.000000 -0.086756 -2.345276 10.030945 18.941011 37.761944 27.868557 0.000007 0.000088 4.061083 -0.507385 -0.039573 0.000390 0.000006 0.000006 3.248868 -0.006997 0.022139 -0.001587 -0.000004 0.000002 2.639697 -0.000000 -0.000002 -0.000002 0.104086 -0.006779 9.502945 12.985411 39.360321 18.921741 0.000009 0.000022 4.568723 -0.507757 -0.000138 0.000014 -0.000003 0.000013 3.654969 -0.007393 0.000003 0.003917 -0.000007 0.000012 2.741282 -0.000002 0.000000 -0.000001 0.086756 2.267442 8.921724 2.424624 39.440463 4.075833 -0.000020 0.000022 4.061091 1.022732 -0.000491 -0.000032 -0.000008 0.000017 3.654980 0.023690 -0.000000 -0.000201 -0.000007 0.000010 2.741248 0.000000 -0.000000 0.000003 -0.173491 4.467196 7.976997 -8.608548 33.829886 -9.743995 -0.000000 -0.000002 3.350422 2.014089 -0.000003 -0.000006 -0.000012 0.000012 2.842744 0.011983 0.000002 -0.004982 -0.000003 0.000001 2.639693 -0.000001 0.000001 0.000001 -0.000001 -0.000005 -0.000006 0.000000 -0.000001 -0.000002 0.000028 -0.000010 0.000008 0.000002 -0.000001 -0.000003 2.625401 0.000010 11.175251 -14.701161 82.139834 -0.433430 -0.000011 -0.000011 10.813644 -22.033726 81.638601 -7.715162 0.000000 0.000008 28.724777 -24.479251 1.132801 102.342585 0.644424 0.328842 25.716187 51.222409 -41.801789 -28.371100 2.867287 -2.944290 3.959610 -32.415962 13.591556 57.445675 0.000008 0.000017 3.350412 4.708418 -4.020501 -9.020812 -0.000004 0.000031 3.756527 3.201713 -2.871518 -6.226805 0.000014 0.000016 3.099992 -0.000003 0.000001 -0.000000 0.086761 -2.345289 10.030884 5.376400 -20.593809 11.557121 -0.000032 0.000023 4.061089 -0.516128 0.000279 0.000013 0.000023 -0.000005 3.248855 -0.014926 -0.000189 -0.000533 -0.000001 0.000002 2.639751 0.000000 -0.000000 -0.000002 -0.104092 -0.006768 9.502953 0.127465 -19.847085 7.513381 0.000002 0.000009 4.568724 -0.527716 -0.000065 0.000095 -0.000014 0.000017 3.654991 -0.022648 0.000001 -0.000009 -0.000008 0.000001 2.741219 0.000000 -0.000000 0.000001 -0.086769 2.267453 8.921713 -8.577811 -20.391482 1.988187 0.000007 0.000021 4.061080 1.017412 0.000048 -0.000031 0.000002 0.000017 3.655026 0.015266 -0.000002 0.019284 -0.000002 0.000003 2.741269 0.000000 0.000001 -0.000001 0.173500 4.467266 7.976994 -17.724667 -22.013391 -3.073391 0.000007 0.000025 3.350414 2.004208 0.000010 -0.000029 0.000002 0.000021 2.842771 0.002433 -0.000002 -0.002011 0.000015 -0.000003 2.639714 0.000000 -0.000000 0.000001 -0.000004 -0.000004 0.000023 0.000001 0.000000 -0.000004 -0.000001 -0.000014 0.000012 0.000001 -0.000000 -0.000000 -11.289963 0.000053 -0.000011 4.620243 -9.282641 7.537699 -0.000045 0.000031 -38.200333 -0.003539 0.001407 21.702434 0.000001 0.000071 -39.900852 -6.219124 5.027223 12.621408 0.000016 -15.261643 0.000002 0.726735 -0.473289 -20.306084 -0.000004 -7.370672 -0.000001 0.000001 0.000000 -0.000000 -0.000010 0.000063 -0.000005 -0.000000 0.000000 0.000001 0.000000 -0.000001 -0.000002 0.000000 0.000000 0.000001 11.315645 0.000051 0.000010 7.689053 -18.768328 1.359618 -0.000008 0.000097 -38.200287 -1.951538 1.587683 39.115810 0.000008 0.000015 -39.900852 38.489011 -6.661630 16.381360 0.000004 -15.261662 -0.000006 3.610159 -2.144300 -20.564914 0.000012 -7.539977 -0.000001 -0.000000 0.000003 0.000001 0.000010 -0.000068 -0.000011 0.000001 0.000001 0.000001 -0.000002 -0.000003 0.000001 0.000000 0.000001 0.000001 
9.317841 -72.329712 86.268570 -9.531190 5.524826 -18.306982 0.000005 2.080076 8.814249 -0.380161 -0.815363 8.717461 -0.000003 -0.000004 8.844141 -0.089299 -0.398453 2.884433 0.000009 0.000022 11.682279 -2.300225 -2.210438 10.640590 -0.000010 -0.000021 11.746710 -1.262014 -2.788230 9.537224 0.000014 -0.000013 17.658258 -0.432811 0.031680 12.675765 0.000005 -0.000003 5.101517 -1.053887 1.374493 -0.326919 -0.000010 -0.000017 5.101544 -0.113528 2.107145 -21.229917 -0.000005 0.000002 11.655079 -0.000000 0.000000 0.000000 -2.625401 0.000064 11.175223 7.803176 -79.498990 -0.221760 -0.000008 0.000000 10.434689 39.602639 -72.821564 -25.758090 0.000008 -0.000031 29.628450 24.519927 1.104171 107.622580 0.000000 -0.000053 22.857643 -45.681347 19.459245 -43.953439 -2.867271 -2.944183 3.959587 33.272809 -11.458631 61.321725 -0.000011 0.000002 3.350418 -0.293527 0.290516 -0.590547 0.000013 0.000008 3.756516 -0.203511 0.202071 -0.409933 0.000003 0.000001 3.147338 0.000000 -0.000001 0.000000 -0.086765 -2.345276 10.030914 18.105918 35.808404 26.267045 -0.000037 -0.000018 4.061099 -0.506662 -0.000410 0.000041 -0.000005 -0.000007 3.248877 -0.006317 0.000005 -0.001314 -0.000007 -0.000004 2.639701 0.000000 -0.000001 0.000001 0.104092 -0.006710 9.502945 12.232339 37.249106 17.930782 -0.000004 -0.000016 4.568711 -0.507325 0.000043 0.000020 0.000031 0.000010 3.654974 -0.006421 0.000004 0.003833 0.000022 -0.000005 2.741248 0.000000 0.000001 -0.000003 0.086771 2.267457 8.921741 1.972202 37.254386 3.993721 -0.000002 0.000018 4.061113 1.022022 -0.000632 -0.000032 0.000015 -0.000010 3.655010 0.021112 0.000007 -0.000149 0.000012 -0.000005 2.741264 -0.000001 -0.000001 -0.000002 -0.173489 4.467268 7.976990 -8.789864 31.988675 -8.891883 -0.000002 0.000053 3.350411 2.011277 -0.027970 -0.000985 0.000025 0.000005 2.842764 0.009607 0.014994 -0.003837 0.000033 -0.000061 2.639707 0.000000 0.000001 -0.000001 0.000014 0.000024 0.000022 -0.000004 -0.000002 -0.000003 -0.000014 0.000010 -0.000014 -0.000002 -0.000003 -0.000003 2.625404 0.000062 11.175210 -14.750396 81.872303 -0.440344 0.000023 0.000002 10.813627 -20.216532 80.750847 -6.365762 0.000000 0.000038 28.724777 -24.397468 1.045262 102.231089 0.644409 0.328831 25.716171 51.026629 -43.121016 -27.642785 2.867302 -2.944290 3.959526 -32.315493 13.910456 56.898478 0.000010 0.000032 3.350422 5.383776 -4.498574 -10.250333 0.000010 -0.000008 3.756523 3.652190 -3.227382 -7.070151 0.000009 -0.000011 3.100009 0.000002 -0.000001 0.000001 0.086765 -2.345270 10.030869 5.690706 -18.394101 11.781725 0.000001 -0.000016 4.061090 -0.515370 0.000633 0.000010 0.000018 -0.000007 3.248889 -0.014262 -0.000416 -0.000495 0.000007 -0.000012 2.639725 0.000001 0.000001 -0.000002 -0.104063 -0.006760 9.502945 0.464352 -17.916717 7.457410 -0.000012 0.000052 4.568738 -0.524594 0.000024 0.000083 0.000008 -0.000015 3.654987 -0.021383 0.000001 -0.000006 0.000033 -0.000000 2.741253 0.000001 -0.000001 -0.000001 -0.086746 2.267440 8.921700 -8.259140 -19.006513 1.752624 0.000007 0.000014 4.061105 1.016425 -0.020260 -0.000386 -0.000011 -0.000029 3.654986 0.013701 0.010831 0.018193 0.000010 -0.000002 2.741274 0.000000 -0.000000 -0.000001 0.173485 4.467224 7.976980 -17.532047 -21.446330 -3.199002 -0.000001 0.000028 3.350405 2.003284 0.136816 0.004757 0.000033 -0.000008 2.842765 0.001785 -0.074397 -0.001815 -0.000000 0.000001 2.639721 0.000000 0.000002 -0.000000 0.000055 0.000004 0.000003 0.000001 -0.000006 -0.000003 -0.000005 0.000006 0.000011 -0.000001 -0.000000 -0.000002 -11.289959 0.000063 0.000004 4.654540 -9.037516 7.237915 0.000005 0.000030 -38.200333 0.020633 -0.008249 21.797444 -0.000019 -0.000004 -39.900848 -6.534353 5.115582 12.611795 0.000014 -15.261660 -0.000010 0.666905 -0.438572 -20.364880 -0.000013 -7.370671 0.000000 0.000001 -0.000000 -0.000000 0.000002 0.000063 -0.000004 -0.000000 0.000001 0.000004 -0.000000 -0.000000 -0.000004 0.000000 0.000000 0.000000 11.315660 0.000053 0.000003 6.368391 -17.583588 1.344821 -0.000022 0.000006 -38.200283 -1.935247 1.579478 39.205866 -0.000013 0.000033 -39.900841 38.258246 -6.307124 16.655047 -0.000000 -15.261667 -0.000002 3.351154 -1.677376 -20.846641 0.000000 -7.539919 -0.000005 0.000000 0.000001 0.000001 -0.000014 -0.000016 -0.000002 0.000003 -0.000000 0.000000 0.000002 -0.000000 0.000013 -0.000000 -0.000001 0.000001 
